<?xml version="1.0" encoding="UTF-8" standalone="no"?>
<!DOCTYPE svg PUBLIC "-//W3C//DTD SVG 1.1//EN" "http://www.w3.org/Graphics/SVG/1.1/DTD/svg11.dtd">
<svg width="100%" height="100%" viewBox="0 0 3000 3000" version="1.1" xmlns="http://www.w3.org/2000/svg" xmlns:xlink="http://www.w3.org/1999/xlink" xml:space="preserve" xmlns:serif="http://www.serif.com/" style="fill-rule:evenodd;clip-rule:evenodd;stroke-linejoin:round;stroke-miterlimit:2;">
    <g transform="matrix(1.84347,0,0,1.84347,555.085,-1278.06)">
        <path d="M631.819,1630.71L631.819,1152.56L631.845,1152.56C632.708,1125.72 654.769,1104.19 681.819,1104.19C708.868,1104.19 730.929,1125.72 731.792,1152.56L731.819,1152.56L731.819,1845.81C731.819,1845.93 731.818,1846.06 731.817,1846.19C731.956,1864.83 721.633,1882.8 703.792,1891.53C679.005,1903.66 649.033,1893.39 636.903,1868.6L393.33,1370.87L393.33,1846.63C393.33,1874.22 370.926,1896.63 343.33,1896.63C315.735,1896.63 293.33,1874.22 293.33,1846.63L293.33,1153.37L293.357,1153.37C294.195,1127.31 315.032,1106.25 341.017,1105.06L341.095,1105.06L341.123,1105.06L341.193,1105.06L341.393,1105.05L341.438,1105.05C341.857,1105.03 342.277,1105.02 342.694,1105.01L342.881,1105.01L342.987,1105.01L343.014,1105.01L343.055,1105.01L343.178,1105.01L343.266,1105.01L343.33,1105.01L343.414,1105.01L343.476,1105.01L343.527,1105.01C351.612,1105.04 359.247,1107 365.999,1110.44C374.907,1114.95 382.536,1122.15 387.53,1131.58L387.554,1131.57L631.819,1630.71Z" style="fill:rgb(205,11,0);"/>
    </g>
    <g transform="matrix(1.84347,0,0,1.84347,-504.477,-2008.51)">
        <path d="M868.88,1290.13C878.355,1177.84 972.617,1089.53 1087.34,1089.53C1208.35,1089.53 1306.59,1187.77 1306.59,1308.77L1206.58,1308.77C1206.58,1242.96 1153.16,1189.52 1087.34,1189.52C1028.74,1189.52 979.952,1231.89 969.963,1287.63C989.476,1268.11 1021.16,1268.11 1040.67,1287.63C1060.19,1307.14 1060.19,1338.83 1040.67,1358.34L953.463,1445.55L953.453,1445.56C933.939,1465.07 902.255,1465.07 882.742,1445.56L798.158,1360.97L798.23,1360.9C778.717,1341.39 778.717,1309.7 798.23,1290.19C817.724,1270.7 849.365,1270.68 868.88,1290.13ZM1306.59,1410.19C1306.59,1437.79 1284.18,1460.19 1256.59,1460.19C1228.99,1460.19 1206.59,1437.79 1206.59,1410.19L1206.58,1410.19L1206.58,1308.77L1306.59,1308.77L1306.59,1410.19Z" style="fill:rgb(205,11,0);"/>
    </g>
    <g transform="matrix(-1.84347,-2.2576e-16,2.2576e-16,-1.84347,3504.48,5008.51)">
        <path d="M868.88,1290.13C878.355,1177.84 972.617,1089.53 1087.34,1089.53C1208.35,1089.53 1306.59,1187.77 1306.59,1308.77L1206.58,1308.77C1206.58,1242.96 1153.16,1189.52 1087.34,1189.52C1028.74,1189.52 979.952,1231.89 969.963,1287.63C989.476,1268.11 1021.16,1268.11 1040.67,1287.63C1060.19,1307.14 1060.19,1338.83 1040.67,1358.34L953.463,1445.55L953.453,1445.56C933.939,1465.07 902.255,1465.07 882.742,1445.56L798.158,1360.97L798.23,1360.9C778.717,1341.39 778.717,1309.7 798.23,1290.19C817.724,1270.7 849.365,1270.68 868.88,1290.13ZM1306.59,1410.19C1306.59,1437.79 1284.18,1460.19 1256.59,1460.19C1228.99,1460.19 1206.59,1437.79 1206.59,1410.19L1206.58,1410.19L1206.58,1308.77L1306.59,1308.77L1306.59,1410.19Z" style="fill:rgb(205,11,0);"/>
    </g>
</svg>
